<?xml version="1.0" standalone="no"?><!DOCTYPE svg PUBLIC "-//W3C//DTD SVG 1.1//EN" "http://www.w3.org/Graphics/SVG/1.1/DTD/svg11.dtd"><svg t="1674751890735" class="icon" viewBox="0 0 1024 1024" version="1.1" xmlns="http://www.w3.org/2000/svg" p-id="17115" xmlns:xlink="http://www.w3.org/1999/xlink" width="200" height="200"><path d="M512 1023.992c-281.5978 0-511.996-230.3982-511.996-511.996s230.3982-511.996 511.996-511.996 511.996 230.3982 511.996 511.996-230.3982 511.996-511.996 511.996z" fill="#2196F3" p-id="17116" data-spm-anchor-id="a313x.7781069.0.i12" class=""></path><path d="M529.999859 231.65419c-36.623714-5.895954-27.471785-1.015992-67.143475 6.079953-39.67969 7.087945-74.175421 52.551589-126.151015 86.087327-40.839681 26.359794-92.583277 19.23985-92.583276 19.23985l21.367833 176.862618 111.911126 140.134905-39.67969 132.670964 60.535527 95.703252 89.671299 134.950946c7.983938 0.375997 15.999875 0.615995 24.071812 0.615995 281.5978 0 511.996-230.3982 511.996-511.996 0-32.415747-3.183975-64.103499-9.01593-94.887259-63.543504-25.399802-451.364474-180.054593-484.980211-185.462551z" fill="#2196F3" p-id="17117" data-spm-anchor-id="a313x.7781069.0.i14" class=""></path><path d="M761.998047 346.085296c-6.223951 55.831564-11.135913 110.495137-18.863853 164.750713-3.81597 26.815791-23.03982 42.471668-48.135624 52.919587-43.911657 18.295857-89.855298 16.783869-135.65494 17.023867-58.503543 0.311998-229.966203 9.743924-265.437926-28.455778-14.503887-13.335896-26.663792-29.111773-29.47177-46.10364-8.663932-52.43959-12.319904-105.703174-18.079859-160.142749 8.455934-1.26399 14.791884-2.53598 21.183835-3.119975 42.903665-3.927969 78.375388-19.559847 110.159139-51.391599 70.535449-70.663448 175.038633-72.055437 245.550082-7.735939 54.535574 49.743611 54.535574 49.743611 138.750916 62.255513" fill="#F7BE15" p-id="17118"></path><path d="M472.480309 588.979399c-82.135358 0-159.150757-5.407958-183.726565-31.871751-17.87986-16.415872-28.527777-33.27174-31.247756-49.743612-6.271951-37.895704-9.831923-75.287412-13.615893-114.871102-1.447989-15.135882-2.895977-30.367763-4.519965-45.687643a7.031945 7.031945 0 0 1 5.943953-7.68794c2.775978-0.415997 5.311959-0.831994 7.71194-1.223991 5.039961-0.823994 9.447926-1.535988 13.887892-1.943985 42.471668-3.89597 76.095406-19.575847 105.815173-49.367614 71.751439-71.855439 181.478582-75.271412 255.262006-7.951938 52.959586 48.295623 52.959586 48.295623 135.054945 60.495528a7.019945 7.019945 0 0 1 5.943953 7.727939c-1.831986 16.423872-3.543972 32.751744-5.255959 48.991617-4.007969 38.135702-8.167936 77.567394-13.639893 115.975094-3.727971 26.191795-20.871837 45.303646-52.391591 58.423544-41.647675 17.335865-85.135335 17.431864-127.207006 17.527863l-11.095913 0.032c-7.67194 0.04-17.287865 0.231998-28.279779 0.463996-19.423848 0.407997-39.167694 0.711994-58.639542 0.711995M254.034015 351.97325a4867.061976 4867.061976 0 0 1 3.83997 39.183694c3.759971 39.343693 7.303943 76.487402 13.487895 113.91911 2.199983 13.287896 11.375911 27.439786 27.287787 42.071671 29.055773 31.255756 166.238701 28.415778 232.150186 27.079789 11.079913-0.231998 20.767838-0.423997 28.495778-0.471996l11.143912-0.032c42.559668-0.095999 82.759353-0.183999 121.839049-16.455872 26.91979-11.207912 40.863681-26.271795 43.887657-47.423629 5.439958-38.151702 9.383927-75.703409 13.567894-115.471098 1.479988-14.04789 2.959977-28.15178 4.519964-42.335669-78.943383-11.775908-81.647362-13.663893-135.758939-63.015508-69.247459-63.183506-168.446684-60.023531-235.830158 7.503941-32.191749 32.239748-68.567464 49.215616-114.495105 53.431583-4.127968 0.367997-8.207936 1.047992-12.903899 1.815986-0.391997 0.064-0.807994 0.135999-1.231991 0.199998" fill="#474341" p-id="17119"></path><path d="M358.929196 512.363997c-2.711979 0-4.911962-2.279982-4.911962-4.999961 0-29.175772 144.022875-29.519769 150.150827-29.519769s150.150827 0.343997 150.150827 29.519769c0 2.719979-2.199983 4.919962-4.919961 4.919962-2.727979 0-4.919962-2.199983-4.919962-4.919962-2.367982-6.967946-51.311599-19.679846-140.310904-19.679846-89.007305 0-137.942922 12.711901-140.334903 19.823845 0.008 2.727979-2.183983 4.855962-4.903962 4.855962M306.257607 408.788806a4.919962 4.919962 0 0 1-4.879962-4.375965c-1.479988-13.383895-2.887977-26.623792-4.183967-38.847697-1.119991-10.471918-2.143983-20.215842-3.087976-28.655776a4.919962 4.919962 0 0 1 4.351966-5.431958c2.687979-0.247998 5.13596 1.647987 5.431958 4.351966 0.927993 8.455934 1.975985 18.207858 3.087976 28.703776 1.29599 12.199905 2.703979 25.431801 4.183967 38.791697a4.919962 4.919962 0 0 1-4.903962 5.463957" fill="#474341" p-id="17120"></path><path d="M481.112241 550.195702c-64.511496 0-124.943024-4.047968-144.134874-23.799814-14.05589-12.327904-22.407825-24.967805-24.551808-37.295709-0.599995-3.495973-1.207991-7.255943-1.815986-11.191913-0.415997-2.679979 1.439989-5.199959 4.119968-5.607956 2.60798-0.463996 5.207959 1.423989 5.607956 4.119968 0.599995 3.88797 1.191991 7.559941 1.791986 10.999914 1.743986 10.055921 9.01593 20.783838 21.615831 31.847751 23.06382 23.719815 131.414973 21.591831 183.438567 20.55184 8.735932-0.167999 16.375872-0.319998 22.455825-0.351998l8.759932-0.023999c32.151749-0.056 65.399489-0.119999 96.343247-12.431903 21.407833-8.527933 32.495746-19.959844 34.895727-35.999719 3.543972-23.847814 6.34395-57.095554 9.055929-89.247303l4.967962-0.407997 4.831962 1.231991c-2.719979 32.303748-5.527957 65.719487-9.135929 89.871298-2.919977 19.583847-16.319873 33.871735-40.97568 43.687658-32.679745 12.999898-66.887477 13.071898-99.967219 13.135898l-8.727931 0.024c-6.047953 0.032-13.639893 0.183999-22.311826 0.351997-15.31188 0.295998-30.911759 0.535996-46.263639 0.535996M706.134483 377.66105c-0.159999 0-0.295998-0.008-0.447996-0.016a4.915962 4.915962 0 0 1-4.463965-5.335959c1.039992-11.735908 2.119983-22.751822 3.247974-32.375747 0.319998-2.703979 2.767978-4.575964 5.455958-4.319966a4.927962 4.927962 0 0 1 4.319966 5.463957c-1.119991 9.551925-2.191983 20.46384-3.223975 32.10375a4.911962 4.911962 0 0 1-4.887962 4.479965" fill="#474341" p-id="17121"></path><path d="M704.614495 366.421137c-0.167999 0-0.351997-0.008-0.519996-0.039999-63.447504-9.527926-73.743424-12.735901-111.503129-46.511637a3.507973 3.507973 0 0 1-0.271997-4.959961 3.499973 3.499973 0 0 1 4.959961-0.271998c36.983711 33.095741 46.279638 35.543722 107.863157 44.79165a3.519973 3.519973 0 0 1 2.951977 3.999969 3.509973 3.509973 0 0 1-3.479973 2.991976M578.743479 306.085609c-0.839993 0-1.695987-0.295998-2.359982-0.919993a182.376575 182.376575 0 0 0-28.423778-21.271834 3.521972 3.521972 0 0 1-1.191991-4.831962 3.559972 3.559972 0 0 1 4.831963-1.191991 188.752525 188.752525 0 0 1 29.511769 22.103827 3.499973 3.499973 0 0 1 0.231998 4.959962 3.481973 3.481973 0 0 1-2.599979 1.151991" fill="#474341" p-id="17122"></path><path d="M347.865282 802.289732c-6.495949-2.231983-9.991922-9.367927-7.759939-15.871876l63.503504-201.926422c2.231983-6.503949 13.783892-6.007953 20.279841-3.775971 6.503949 2.231983 14.191889 9.167928 11.959907 15.663878l-72.103437 198.142452c-2.231983 6.503949-9.383927 9.991922-15.879876 7.767939" fill="#8B7A5C" p-id="17123"></path><path d="M351.913251 807.881688a17.335865 17.335865 0 0 1-5.639956-0.935992h-0.008a17.313865 17.313865 0 0 1-9.975922-8.831931 17.333865 17.333865 0 0 1-0.847994-13.295896l63.455505-201.790424c3.415973-9.943922 17.583863-10.023922 26.575792-6.959946 4.215967 1.439989 8.463934 4.311966 11.375911 7.663941 3.943969 4.543965 5.239959 9.599925 3.647972 14.255888l-72.151437 198.238451c-2.431981 7.127944-9.199928 11.655909-16.431871 11.655909m-2.463981-10.255919c3.959969 1.367989 8.279935-0.759994 9.623925-4.695964l72.151436-198.238451c0.511996-1.519988-0.895993-3.487973-1.799986-4.519965-1.767986-2.031984-4.567964-3.919969-7.135944-4.791962-6.111952-2.103984-13.327896-1.351989-14.03989 0.711994l-63.447505 201.790424c-1.399989 4.079968 0.703995 8.399934 4.647964 9.743924" fill="#474341" p-id="17124"></path><path d="M660.48684 802.289732c6.495949-2.231983 9.991922-9.367927 7.759939-15.871876l-63.503504-201.926422c-2.231983-6.503949-13.783892-6.007953-20.279841-3.775971-6.503949 2.231983-14.191889 9.167928-11.959907 15.663878l72.103437 198.142452c2.239983 6.503949 9.383927 9.991922 15.879876 7.767939" fill="#8B7A5C" p-id="17125"></path><path d="M656.446872 807.881688c-7.223944 0-13.999891-4.543965-16.479872-11.751908l-72.079437-198.062452c-1.623987-4.743963-0.327997-9.807923 3.615972-14.343888 2.911977-3.351974 7.159944-6.215951 11.367911-7.66394 4.287967-1.455989 9.455926-2.063984 13.839892-1.631988 8.831931 0.911993 11.743908 5.695956 12.695901 8.471934l63.543504 202.038422c1.463989 4.255967 1.159991 8.98393-0.887993 13.167897a17.233865 17.233865 0 0 1-9.975923 8.831931 17.637862 17.637862 0 0 1-5.639955 0.943992m-62.663511-223.758251c-2.54398 0-5.407958 0.455996-7.71994 1.24799-2.56798 0.871993-5.367958 2.759978-7.135944 4.799962-0.895993 1.031992-2.311982 2.999977-1.759986 4.607964l72.063437 198.062453c1.399989 4.023969 5.743955 6.151952 9.655924 4.783963a7.563941 7.563941 0 0 0 4.703964-9.615925l-63.543504-202.046422c-0.327997-0.959993-2.471981-1.551988-4.343966-1.743986-0.599995-0.048-1.24799-0.095999-1.919985-0.095999" fill="#474341" p-id="17126"></path><path d="M411.328786 678.210701c-1.831986 0-3.591972-1.039992-4.431965-2.799978a4.903962 4.903962 0 0 1 2.311982-6.551948l161.182741-76.9114a4.927962 4.927962 0 0 1 6.559949 2.311982 4.895962 4.895962 0 0 1-2.319982 6.551949l-161.182741 76.919399c-0.687995 0.327997-1.407989 0.479996-2.119984 0.479996" fill="#474341" p-id="17127"></path><path d="M596.711338 675.082726a5.019961 5.019961 0 0 1-2.119983-0.479996l-161.182741-76.9034a4.913962 4.913962 0 0 1-2.319982-6.559948 4.913962 4.913962 0 0 1 6.559949-2.311982l161.182741 76.903399a4.899962 4.899962 0 0 1 2.311982 6.551949c-0.839993 1.767986-2.59998 2.799978-4.431966 2.799978M627.807095 700.850525c-1.431989 0-2.775978-0.879993-3.303974-2.303982l-6.855946-18.663855a3.521972 3.521972 0 0 1 2.087983-4.511964c1.815986-0.639995 3.83997 0.255998 4.511965 2.087983l6.855947 18.663855a3.527972 3.527972 0 0 1-3.295975 4.727963M611.80722 657.274865c-1.431989 0-2.775978-0.879993-3.303974-2.303982l-17.975859-48.959617a3.525972 3.525972 0 0 1 2.087983-4.511965c1.799986-0.631995 3.84797 0.263998 4.511965 2.095983l17.97586 48.959618a3.525972 3.525972 0 0 1-2.087984 4.511965c-0.391997 0.143999-0.799994 0.207998-1.207991 0.207998" fill="#474341" p-id="17128"></path><path d="M655.662878 511.372005c0 15.863876-66.59948 28.727776-148.758838 28.727775-82.151358 0-148.758838-12.8639-148.758838-28.727775s66.59948-28.727776 148.758838-28.727776 148.758838 12.8639 148.758838 28.727776" fill="#DD9D00" p-id="17129"></path></svg>